<mxfile host="app.diagrams.net" agent="Mozilla/5.0 (X11; Linux x86_64; rv:133.0) Gecko/20100101 Firefox/133.0" version="25.0.3">
  <diagram name="PÃ¡gina-1" id="XXRASxe_aMrs5WXhI0Pi">
    <mxGraphModel grid="1" page="1" gridSize="10" guides="1" tooltips="1" connect="1" arrows="1" fold="1" pageScale="1" pageWidth="827" pageHeight="1169" math="0" shadow="0">
      <root>
        <mxCell id="0" />
        <mxCell id="1" parent="0" />
        <mxCell id="G9ReZ2Hsb_IeG8jyXpL3-89" style="edgeStyle=orthogonalEdgeStyle;rounded=0;orthogonalLoop=1;jettySize=auto;html=1;entryX=0;entryY=1;entryDx=0;entryDy=0;" edge="1" parent="1" source="aOGv1YQLPQVqvFgoYvwG-2" target="aOGv1YQLPQVqvFgoYvwG-8">
          <mxGeometry relative="1" as="geometry">
            <Array as="points">
              <mxPoint x="-60" y="910" />
              <mxPoint x="-60" y="481" />
            </Array>
          </mxGeometry>
        </mxCell>
        <mxCell id="G9ReZ2Hsb_IeG8jyXpL3-162" style="edgeStyle=orthogonalEdgeStyle;rounded=0;orthogonalLoop=1;jettySize=auto;html=1;entryX=0;entryY=0.5;entryDx=0;entryDy=0;" edge="1" parent="1" source="aOGv1YQLPQVqvFgoYvwG-2" target="aOGv1YQLPQVqvFgoYvwG-10">
          <mxGeometry relative="1" as="geometry">
            <Array as="points">
              <mxPoint x="-490" y="960" />
              <mxPoint x="-490" y="1930" />
              <mxPoint x="-138" y="1930" />
            </Array>
          </mxGeometry>
        </mxCell>
        <mxCell id="aOGv1YQLPQVqvFgoYvwG-2" value="Recursos&amp;nbsp;&lt;div&gt;humanos&lt;div&gt;&lt;br&gt;&lt;/div&gt;&lt;/div&gt;" style="shape=umlActor;verticalLabelPosition=bottom;verticalAlign=top;html=1;outlineConnect=0;" vertex="1" parent="1">
          <mxGeometry x="-650" y="930" width="30" height="60" as="geometry" />
        </mxCell>
        <mxCell id="6uhYlQjSWHIFQsnubcx_-12" style="edgeStyle=orthogonalEdgeStyle;rounded=0;orthogonalLoop=1;jettySize=auto;html=1;entryX=1;entryY=0.5;entryDx=0;entryDy=0;" edge="1" parent="1" source="aOGv1YQLPQVqvFgoYvwG-5" target="aOGv1YQLPQVqvFgoYvwG-89">
          <mxGeometry relative="1" as="geometry">
            <Array as="points">
              <mxPoint x="670" y="620" />
              <mxPoint x="670" y="440" />
              <mxPoint x="55" y="440" />
              <mxPoint x="55" y="442" />
            </Array>
          </mxGeometry>
        </mxCell>
        <mxCell id="6uhYlQjSWHIFQsnubcx_-13" style="edgeStyle=orthogonalEdgeStyle;rounded=0;orthogonalLoop=1;jettySize=auto;html=1;entryX=1;entryY=0.5;entryDx=0;entryDy=0;" edge="1" parent="1" source="aOGv1YQLPQVqvFgoYvwG-5" target="aOGv1YQLPQVqvFgoYvwG-90">
          <mxGeometry relative="1" as="geometry">
            <Array as="points">
              <mxPoint x="600" y="630" />
              <mxPoint x="600" y="559" />
            </Array>
          </mxGeometry>
        </mxCell>
        <mxCell id="6uhYlQjSWHIFQsnubcx_-16" style="edgeStyle=orthogonalEdgeStyle;rounded=0;orthogonalLoop=1;jettySize=auto;html=1;entryX=1;entryY=0.5;entryDx=0;entryDy=0;" edge="1" parent="1" source="aOGv1YQLPQVqvFgoYvwG-5" target="aOGv1YQLPQVqvFgoYvwG-93">
          <mxGeometry relative="1" as="geometry">
            <Array as="points">
              <mxPoint x="720" y="643" />
              <mxPoint x="720" y="810" />
              <mxPoint x="380" y="810" />
              <mxPoint x="380" y="923" />
            </Array>
          </mxGeometry>
        </mxCell>
        <mxCell id="6uhYlQjSWHIFQsnubcx_-21" style="edgeStyle=orthogonalEdgeStyle;rounded=0;orthogonalLoop=1;jettySize=auto;html=1;entryX=1;entryY=0.5;entryDx=0;entryDy=0;" edge="1" parent="1" source="aOGv1YQLPQVqvFgoYvwG-5" target="G9ReZ2Hsb_IeG8jyXpL3-104">
          <mxGeometry relative="1" as="geometry">
            <Array as="points">
              <mxPoint x="690" y="670" />
              <mxPoint x="690" y="830" />
              <mxPoint x="660" y="830" />
              <mxPoint x="660" y="1950" />
              <mxPoint x="140" y="1950" />
              <mxPoint x="140" y="1960" />
            </Array>
            <mxPoint x="875" y="700" as="sourcePoint" />
          </mxGeometry>
        </mxCell>
        <mxCell id="aOGv1YQLPQVqvFgoYvwG-5" value="Empleado&lt;div&gt;&lt;br&gt;&lt;/div&gt;" style="shape=umlActor;verticalLabelPosition=bottom;verticalAlign=top;html=1;outlineConnect=0;" vertex="1" parent="1">
          <mxGeometry x="860" y="612.5" width="30" height="60" as="geometry" />
        </mxCell>
        <mxCell id="6uhYlQjSWHIFQsnubcx_-19" style="edgeStyle=orthogonalEdgeStyle;rounded=0;orthogonalLoop=1;jettySize=auto;html=1;entryX=1;entryY=0.5;entryDx=0;entryDy=0;" edge="1" parent="1" source="aOGv1YQLPQVqvFgoYvwG-6" target="G9ReZ2Hsb_IeG8jyXpL3-79">
          <mxGeometry relative="1" as="geometry">
            <Array as="points">
              <mxPoint x="790" y="1250" />
              <mxPoint x="790" y="1330" />
              <mxPoint x="460" y="1330" />
              <mxPoint x="460" y="1328" />
            </Array>
            <mxPoint x="880" y="1230" as="sourcePoint" />
          </mxGeometry>
        </mxCell>
        <mxCell id="6uhYlQjSWHIFQsnubcx_-20" style="edgeStyle=orthogonalEdgeStyle;rounded=0;orthogonalLoop=1;jettySize=auto;html=1;entryX=1;entryY=0.5;entryDx=0;entryDy=0;" edge="1" parent="1" source="aOGv1YQLPQVqvFgoYvwG-6" target="G9ReZ2Hsb_IeG8jyXpL3-75">
          <mxGeometry relative="1" as="geometry">
            <Array as="points">
              <mxPoint x="805" y="1240" />
              <mxPoint x="520" y="1240" />
              <mxPoint x="520" y="1552" />
            </Array>
          </mxGeometry>
        </mxCell>
        <mxCell id="GsrPZT_TSLM2MlPiRCD0-2" style="edgeStyle=orthogonalEdgeStyle;rounded=0;orthogonalLoop=1;jettySize=auto;html=1;entryX=1;entryY=0.5;entryDx=0;entryDy=0;" edge="1" parent="1" source="aOGv1YQLPQVqvFgoYvwG-5" target="G9ReZ2Hsb_IeG8jyXpL3-78">
          <mxGeometry relative="1" as="geometry">
            <Array as="points">
              <mxPoint x="740" y="660" />
              <mxPoint x="740" y="1170" />
              <mxPoint x="35" y="1170" />
            </Array>
            <mxPoint x="875" y="680" as="sourcePoint" />
          </mxGeometry>
        </mxCell>
        <mxCell id="aOGv1YQLPQVqvFgoYvwG-6" value="Aspirante" style="shape=umlActor;verticalLabelPosition=bottom;verticalAlign=top;html=1;outlineConnect=0;" vertex="1" parent="1">
          <mxGeometry x="840" y="1200" width="30" height="60" as="geometry" />
        </mxCell>
        <mxCell id="G9ReZ2Hsb_IeG8jyXpL3-77" style="edgeStyle=orthogonalEdgeStyle;rounded=0;orthogonalLoop=1;jettySize=auto;html=1;entryX=0;entryY=0.5;entryDx=0;entryDy=0;" edge="1" parent="1" source="aOGv1YQLPQVqvFgoYvwG-15" target="aOGv1YQLPQVqvFgoYvwG-8">
          <mxGeometry relative="1" as="geometry">
            <Array as="points">
              <mxPoint x="-560" y="635" />
              <mxPoint x="-560" y="490" />
              <mxPoint x="-65" y="490" />
              <mxPoint x="-65" y="462" />
            </Array>
          </mxGeometry>
        </mxCell>
        <mxCell id="6uhYlQjSWHIFQsnubcx_-5" style="edgeStyle=orthogonalEdgeStyle;rounded=0;orthogonalLoop=1;jettySize=auto;html=1;entryX=0;entryY=0.5;entryDx=0;entryDy=0;" edge="1" parent="1" source="aOGv1YQLPQVqvFgoYvwG-15" target="aOGv1YQLPQVqvFgoYvwG-7">
          <mxGeometry relative="1" as="geometry">
            <Array as="points">
              <mxPoint x="-560" y="635" />
              <mxPoint x="-560" y="251" />
              <mxPoint x="-260" y="251" />
            </Array>
            <mxPoint x="-200" y="251" as="targetPoint" />
          </mxGeometry>
        </mxCell>
        <mxCell id="6uhYlQjSWHIFQsnubcx_-11" style="edgeStyle=orthogonalEdgeStyle;rounded=0;orthogonalLoop=1;jettySize=auto;html=1;entryX=0;entryY=0.5;entryDx=0;entryDy=0;" edge="1" parent="1" source="aOGv1YQLPQVqvFgoYvwG-15">
          <mxGeometry relative="1" as="geometry">
            <mxPoint x="-670" y="490" as="sourcePoint" />
            <mxPoint x="-73" y="1922.5" as="targetPoint" />
            <Array as="points">
              <mxPoint x="-540" y="635" />
              <mxPoint x="-540" y="770" />
              <mxPoint x="-359" y="770" />
              <mxPoint x="-359" y="1922" />
            </Array>
          </mxGeometry>
        </mxCell>
        <mxCell id="GsrPZT_TSLM2MlPiRCD0-1" style="edgeStyle=orthogonalEdgeStyle;rounded=0;orthogonalLoop=1;jettySize=auto;html=1;entryX=0;entryY=0.5;entryDx=0;entryDy=0;" edge="1" parent="1" source="aOGv1YQLPQVqvFgoYvwG-15" target="aOGv1YQLPQVqvFgoYvwG-9">
          <mxGeometry relative="1" as="geometry">
            <Array as="points">
              <mxPoint x="-290" y="635" />
              <mxPoint x="-290" y="1583" />
            </Array>
          </mxGeometry>
        </mxCell>
        <mxCell id="aOGv1YQLPQVqvFgoYvwG-15" value="Administrador&lt;div&gt;&lt;br&gt;&lt;/div&gt;" style="shape=umlActor;verticalLabelPosition=bottom;verticalAlign=top;html=1;outlineConnect=0;" vertex="1" parent="1">
          <mxGeometry x="-680" y="600" width="30" height="70" as="geometry" />
        </mxCell>
        <mxCell id="aOGv1YQLPQVqvFgoYvwG-16" value="" style="swimlane;startSize=0;" vertex="1" parent="1">
          <mxGeometry x="-600" y="180" width="1430" height="2210" as="geometry" />
        </mxCell>
        <mxCell id="6uhYlQjSWHIFQsnubcx_-8" style="edgeStyle=orthogonalEdgeStyle;rounded=0;orthogonalLoop=1;jettySize=auto;html=1;" edge="1" parent="aOGv1YQLPQVqvFgoYvwG-16" source="aOGv1YQLPQVqvFgoYvwG-7">
          <mxGeometry relative="1" as="geometry">
            <mxPoint x="475.00003391940436" y="81.28571428571445" as="targetPoint" />
          </mxGeometry>
        </mxCell>
        <mxCell id="aOGv1YQLPQVqvFgoYvwG-7" value="Gestion&lt;div&gt;Usuario&lt;/div&gt;&lt;div&gt;&lt;br&gt;&lt;/div&gt;" style="ellipse;whiteSpace=wrap;html=1;aspect=fixed;" vertex="1" parent="aOGv1YQLPQVqvFgoYvwG-16">
          <mxGeometry x="330" y="41.25" width="80" height="80" as="geometry" />
        </mxCell>
        <mxCell id="G9ReZ2Hsb_IeG8jyXpL3-36" style="edgeStyle=orthogonalEdgeStyle;rounded=0;orthogonalLoop=1;jettySize=auto;html=1;entryX=0;entryY=0.5;entryDx=0;entryDy=0;" edge="1" parent="aOGv1YQLPQVqvFgoYvwG-16" source="aOGv1YQLPQVqvFgoYvwG-8" target="aOGv1YQLPQVqvFgoYvwG-89">
          <mxGeometry relative="1" as="geometry">
            <Array as="points">
              <mxPoint x="545" y="262.5" />
              <mxPoint x="545" y="262.5" />
            </Array>
          </mxGeometry>
        </mxCell>
        <mxCell id="G9ReZ2Hsb_IeG8jyXpL3-39" style="edgeStyle=orthogonalEdgeStyle;rounded=0;orthogonalLoop=1;jettySize=auto;html=1;entryX=0;entryY=0.5;entryDx=0;entryDy=0;" edge="1" parent="aOGv1YQLPQVqvFgoYvwG-16" source="aOGv1YQLPQVqvFgoYvwG-8" target="aOGv1YQLPQVqvFgoYvwG-90">
          <mxGeometry relative="1" as="geometry">
            <Array as="points">
              <mxPoint x="495" y="379.5" />
            </Array>
          </mxGeometry>
        </mxCell>
        <mxCell id="G9ReZ2Hsb_IeG8jyXpL3-53" style="edgeStyle=orthogonalEdgeStyle;rounded=0;orthogonalLoop=1;jettySize=auto;html=1;entryX=0;entryY=0.5;entryDx=0;entryDy=0;" edge="1" parent="aOGv1YQLPQVqvFgoYvwG-16" source="aOGv1YQLPQVqvFgoYvwG-8" target="aOGv1YQLPQVqvFgoYvwG-91">
          <mxGeometry relative="1" as="geometry">
            <Array as="points">
              <mxPoint x="495" y="462.5" />
            </Array>
          </mxGeometry>
        </mxCell>
        <mxCell id="G9ReZ2Hsb_IeG8jyXpL3-54" style="edgeStyle=orthogonalEdgeStyle;rounded=0;orthogonalLoop=1;jettySize=auto;html=1;entryX=0;entryY=0.5;entryDx=0;entryDy=0;" edge="1" parent="aOGv1YQLPQVqvFgoYvwG-16" source="aOGv1YQLPQVqvFgoYvwG-8" target="aOGv1YQLPQVqvFgoYvwG-92">
          <mxGeometry relative="1" as="geometry">
            <Array as="points">
              <mxPoint x="495" y="602.5" />
            </Array>
          </mxGeometry>
        </mxCell>
        <mxCell id="G9ReZ2Hsb_IeG8jyXpL3-64" style="edgeStyle=orthogonalEdgeStyle;rounded=0;orthogonalLoop=1;jettySize=auto;html=1;entryX=0;entryY=0.5;entryDx=0;entryDy=0;" edge="1" parent="aOGv1YQLPQVqvFgoYvwG-16" source="aOGv1YQLPQVqvFgoYvwG-8" target="aOGv1YQLPQVqvFgoYvwG-93">
          <mxGeometry relative="1" as="geometry">
            <Array as="points">
              <mxPoint x="495" y="742.5" />
            </Array>
          </mxGeometry>
        </mxCell>
        <mxCell id="G9ReZ2Hsb_IeG8jyXpL3-73" style="edgeStyle=orthogonalEdgeStyle;rounded=0;orthogonalLoop=1;jettySize=auto;html=1;entryX=0;entryY=0.5;entryDx=0;entryDy=0;" edge="1" parent="aOGv1YQLPQVqvFgoYvwG-16" source="aOGv1YQLPQVqvFgoYvwG-8" target="aOGv1YQLPQVqvFgoYvwG-94">
          <mxGeometry relative="1" as="geometry">
            <Array as="points">
              <mxPoint x="495" y="882.5" />
            </Array>
          </mxGeometry>
        </mxCell>
        <mxCell id="G9ReZ2Hsb_IeG8jyXpL3-88" style="edgeStyle=orthogonalEdgeStyle;rounded=0;orthogonalLoop=1;jettySize=auto;html=1;entryX=0;entryY=0.5;entryDx=0;entryDy=0;" edge="1" parent="aOGv1YQLPQVqvFgoYvwG-16" source="aOGv1YQLPQVqvFgoYvwG-8" target="G9ReZ2Hsb_IeG8jyXpL3-78">
          <mxGeometry relative="1" as="geometry">
            <Array as="points">
              <mxPoint x="495" y="1007.5" />
            </Array>
          </mxGeometry>
        </mxCell>
        <mxCell id="G9ReZ2Hsb_IeG8jyXpL3-135" style="edgeStyle=orthogonalEdgeStyle;rounded=0;orthogonalLoop=1;jettySize=auto;html=1;entryX=0;entryY=0.5;entryDx=0;entryDy=0;" edge="1" parent="aOGv1YQLPQVqvFgoYvwG-16" source="aOGv1YQLPQVqvFgoYvwG-8" target="G9ReZ2Hsb_IeG8jyXpL3-79">
          <mxGeometry relative="1" as="geometry">
            <Array as="points">
              <mxPoint x="495" y="1147.5" />
            </Array>
          </mxGeometry>
        </mxCell>
        <mxCell id="aOGv1YQLPQVqvFgoYvwG-8" value="Gestion&lt;div&gt;Recursos humanos&lt;/div&gt;&lt;div&gt;&lt;br&gt;&lt;/div&gt;" style="ellipse;whiteSpace=wrap;html=1;aspect=fixed;" vertex="1" parent="aOGv1YQLPQVqvFgoYvwG-16">
          <mxGeometry x="455" y="242.5" width="80" height="80" as="geometry" />
        </mxCell>
        <mxCell id="G9ReZ2Hsb_IeG8jyXpL3-90" style="edgeStyle=orthogonalEdgeStyle;rounded=0;orthogonalLoop=1;jettySize=auto;html=1;" edge="1" parent="aOGv1YQLPQVqvFgoYvwG-16" source="aOGv1YQLPQVqvFgoYvwG-9" target="G9ReZ2Hsb_IeG8jyXpL3-75">
          <mxGeometry relative="1" as="geometry" />
        </mxCell>
        <mxCell id="G9ReZ2Hsb_IeG8jyXpL3-92" style="edgeStyle=orthogonalEdgeStyle;rounded=0;orthogonalLoop=1;jettySize=auto;html=1;entryX=0;entryY=0.5;entryDx=0;entryDy=0;" edge="1" parent="aOGv1YQLPQVqvFgoYvwG-16" source="aOGv1YQLPQVqvFgoYvwG-9" target="G9ReZ2Hsb_IeG8jyXpL3-91">
          <mxGeometry relative="1" as="geometry" />
        </mxCell>
        <mxCell id="aOGv1YQLPQVqvFgoYvwG-9" value="Gestion&lt;div&gt;Empleado&lt;/div&gt;&lt;div&gt;&lt;br&gt;&lt;/div&gt;" style="ellipse;whiteSpace=wrap;html=1;aspect=fixed;" vertex="1" parent="aOGv1YQLPQVqvFgoYvwG-16">
          <mxGeometry x="462" y="1372.5" width="80" height="80" as="geometry" />
        </mxCell>
        <mxCell id="G9ReZ2Hsb_IeG8jyXpL3-118" style="edgeStyle=orthogonalEdgeStyle;rounded=0;orthogonalLoop=1;jettySize=auto;html=1;entryX=0;entryY=0.5;entryDx=0;entryDy=0;" edge="1" parent="aOGv1YQLPQVqvFgoYvwG-16" source="aOGv1YQLPQVqvFgoYvwG-10" target="G9ReZ2Hsb_IeG8jyXpL3-117">
          <mxGeometry relative="1" as="geometry">
            <Array as="points">
              <mxPoint x="625" y="1733" />
              <mxPoint x="625" y="1650" />
            </Array>
          </mxGeometry>
        </mxCell>
        <mxCell id="1qALmxO7JAiboX-G9any-1" style="edgeStyle=orthogonalEdgeStyle;rounded=0;orthogonalLoop=1;jettySize=auto;html=1;entryX=0;entryY=0.5;entryDx=0;entryDy=0;" edge="1" parent="aOGv1YQLPQVqvFgoYvwG-16" source="aOGv1YQLPQVqvFgoYvwG-10" target="G9ReZ2Hsb_IeG8jyXpL3-104">
          <mxGeometry relative="1" as="geometry">
            <Array as="points">
              <mxPoint x="502" y="1780" />
            </Array>
          </mxGeometry>
        </mxCell>
        <mxCell id="aOGv1YQLPQVqvFgoYvwG-10" value="&lt;div&gt;Gestion Reporte&lt;/div&gt;&lt;div&gt;&lt;br&gt;&lt;/div&gt;" style="ellipse;whiteSpace=wrap;html=1;aspect=fixed;" vertex="1" parent="aOGv1YQLPQVqvFgoYvwG-16">
          <mxGeometry x="462" y="1692.5" width="80" height="80" as="geometry" />
        </mxCell>
        <mxCell id="aOGv1YQLPQVqvFgoYvwG-25" value="&lt;div&gt;&lt;br&gt;&lt;/div&gt;Inicio&lt;div&gt;&lt;br&gt;&lt;/div&gt;" style="ellipse;whiteSpace=wrap;html=1;" vertex="1" parent="aOGv1YQLPQVqvFgoYvwG-16">
          <mxGeometry x="1130" width="60" height="40" as="geometry" />
        </mxCell>
        <mxCell id="aOGv1YQLPQVqvFgoYvwG-32" style="edgeStyle=orthogonalEdgeStyle;rounded=0;orthogonalLoop=1;jettySize=auto;html=1;entryX=0;entryY=0.5;entryDx=0;entryDy=0;" edge="1" parent="aOGv1YQLPQVqvFgoYvwG-16" source="aOGv1YQLPQVqvFgoYvwG-26" target="aOGv1YQLPQVqvFgoYvwG-29">
          <mxGeometry relative="1" as="geometry">
            <mxPoint x="735" y="60" as="targetPoint" />
          </mxGeometry>
        </mxCell>
        <mxCell id="aOGv1YQLPQVqvFgoYvwG-37" style="edgeStyle=orthogonalEdgeStyle;rounded=0;orthogonalLoop=1;jettySize=auto;html=1;entryX=0;entryY=0.5;entryDx=0;entryDy=0;" edge="1" parent="aOGv1YQLPQVqvFgoYvwG-16" source="aOGv1YQLPQVqvFgoYvwG-26" target="aOGv1YQLPQVqvFgoYvwG-36">
          <mxGeometry relative="1" as="geometry" />
        </mxCell>
        <mxCell id="aOGv1YQLPQVqvFgoYvwG-26" value="Hoja de vida&lt;div&gt;&lt;br&gt;&lt;/div&gt;" style="ellipse;whiteSpace=wrap;html=1;" vertex="1" parent="aOGv1YQLPQVqvFgoYvwG-16">
          <mxGeometry x="585" y="57.5" width="60" height="47.5" as="geometry" />
        </mxCell>
        <mxCell id="aOGv1YQLPQVqvFgoYvwG-29" value="&lt;div&gt;Estudio&lt;/div&gt;" style="ellipse;whiteSpace=wrap;html=1;" vertex="1" parent="aOGv1YQLPQVqvFgoYvwG-16">
          <mxGeometry x="705" y="10" width="60" height="47.5" as="geometry" />
        </mxCell>
        <mxCell id="aOGv1YQLPQVqvFgoYvwG-36" value="&lt;div&gt;Experiencia&lt;/div&gt;&lt;div&gt;&lt;br&gt;&lt;/div&gt;" style="ellipse;whiteSpace=wrap;html=1;" vertex="1" parent="aOGv1YQLPQVqvFgoYvwG-16">
          <mxGeometry x="705" y="76.25" width="60" height="47.5" as="geometry" />
        </mxCell>
        <mxCell id="6uhYlQjSWHIFQsnubcx_-9" style="edgeStyle=orthogonalEdgeStyle;rounded=0;orthogonalLoop=1;jettySize=auto;html=1;entryX=0;entryY=0.5;entryDx=0;entryDy=0;" edge="1" parent="aOGv1YQLPQVqvFgoYvwG-16" target="aOGv1YQLPQVqvFgoYvwG-26">
          <mxGeometry relative="1" as="geometry">
            <mxPoint x="534.9999660805961" y="81.28571428571445" as="sourcePoint" />
          </mxGeometry>
        </mxCell>
        <mxCell id="aOGv1YQLPQVqvFgoYvwG-89" value="&lt;div&gt;&lt;br&gt;&lt;/div&gt;&lt;div&gt;Vacaciones&lt;/div&gt;&lt;div&gt;&lt;br&gt;&lt;/div&gt;" style="ellipse;whiteSpace=wrap;html=1;" vertex="1" parent="aOGv1YQLPQVqvFgoYvwG-16">
          <mxGeometry x="565" y="252.5" width="80" height="20" as="geometry" />
        </mxCell>
        <mxCell id="aOGv1YQLPQVqvFgoYvwG-90" value="&lt;div&gt;Jornada&lt;/div&gt;" style="ellipse;whiteSpace=wrap;html=1;" vertex="1" parent="aOGv1YQLPQVqvFgoYvwG-16">
          <mxGeometry x="565" y="371.5" width="70" height="15" as="geometry" />
        </mxCell>
        <mxCell id="aOGv1YQLPQVqvFgoYvwG-91" value="&lt;div&gt;&lt;br&gt;&lt;/div&gt;&lt;div&gt;Ausencias&lt;/div&gt;&lt;div&gt;&lt;br&gt;&lt;/div&gt;" style="ellipse;whiteSpace=wrap;html=1;" vertex="1" parent="aOGv1YQLPQVqvFgoYvwG-16">
          <mxGeometry x="565" y="452.5" width="70" height="20" as="geometry" />
        </mxCell>
        <mxCell id="aOGv1YQLPQVqvFgoYvwG-92" value="&lt;div&gt;Paz y salvo&lt;/div&gt;" style="ellipse;whiteSpace=wrap;html=1;" vertex="1" parent="aOGv1YQLPQVqvFgoYvwG-16">
          <mxGeometry x="565" y="592.5" width="70" height="20" as="geometry" />
        </mxCell>
        <mxCell id="aOGv1YQLPQVqvFgoYvwG-93" value="&lt;div&gt;Cargo&lt;/div&gt;" style="ellipse;whiteSpace=wrap;html=1;" vertex="1" parent="aOGv1YQLPQVqvFgoYvwG-16">
          <mxGeometry x="565" y="732.5" width="70" height="20" as="geometry" />
        </mxCell>
        <mxCell id="aOGv1YQLPQVqvFgoYvwG-94" value="&lt;div&gt;Vinculacion&lt;/div&gt;" style="ellipse;whiteSpace=wrap;html=1;" vertex="1" parent="aOGv1YQLPQVqvFgoYvwG-16">
          <mxGeometry x="565" y="872.5" width="70" height="20" as="geometry" />
        </mxCell>
        <mxCell id="G9ReZ2Hsb_IeG8jyXpL3-1" style="edgeStyle=orthogonalEdgeStyle;rounded=0;orthogonalLoop=1;jettySize=auto;html=1;exitX=0.5;exitY=1;exitDx=0;exitDy=0;" edge="1" parent="aOGv1YQLPQVqvFgoYvwG-16" source="aOGv1YQLPQVqvFgoYvwG-94" target="aOGv1YQLPQVqvFgoYvwG-94">
          <mxGeometry relative="1" as="geometry" />
        </mxCell>
        <mxCell id="G9ReZ2Hsb_IeG8jyXpL3-75" value="Postulacion" style="ellipse;whiteSpace=wrap;html=1;" vertex="1" parent="aOGv1YQLPQVqvFgoYvwG-16">
          <mxGeometry x="580" y="1362.5" width="70" height="20" as="geometry" />
        </mxCell>
        <mxCell id="G9ReZ2Hsb_IeG8jyXpL3-78" value="&lt;div&gt;Horas&lt;/div&gt;&lt;div&gt;Extra&lt;/div&gt;" style="ellipse;whiteSpace=wrap;html=1;" vertex="1" parent="aOGv1YQLPQVqvFgoYvwG-16">
          <mxGeometry x="565" y="992.5" width="70" height="30" as="geometry" />
        </mxCell>
        <mxCell id="G9ReZ2Hsb_IeG8jyXpL3-79" value="&lt;div&gt;Convocatoria&lt;/div&gt;" style="ellipse;whiteSpace=wrap;html=1;" vertex="1" parent="aOGv1YQLPQVqvFgoYvwG-16">
          <mxGeometry x="565" y="1132.5" width="80" height="30" as="geometry" />
        </mxCell>
        <mxCell id="G9ReZ2Hsb_IeG8jyXpL3-91" value="Evaluacion Sistema Gestion" style="ellipse;whiteSpace=wrap;html=1;" vertex="1" parent="aOGv1YQLPQVqvFgoYvwG-16">
          <mxGeometry x="580" y="1512.5" width="70" height="60" as="geometry" />
        </mxCell>
        <mxCell id="G9ReZ2Hsb_IeG8jyXpL3-104" value="Notificacion" style="ellipse;whiteSpace=wrap;html=1;" vertex="1" parent="aOGv1YQLPQVqvFgoYvwG-16">
          <mxGeometry x="650" y="1760" width="80" height="40" as="geometry" />
        </mxCell>
        <mxCell id="G9ReZ2Hsb_IeG8jyXpL3-117" value="Certificados" style="ellipse;whiteSpace=wrap;html=1;" vertex="1" parent="aOGv1YQLPQVqvFgoYvwG-16">
          <mxGeometry x="665" y="1630" width="80" height="40" as="geometry" />
        </mxCell>
        <mxCell id="rKyEAuBwIvcvWn2WRYpg-4" style="edgeStyle=orthogonalEdgeStyle;rounded=0;orthogonalLoop=1;jettySize=auto;html=1;entryX=0;entryY=0.5;entryDx=0;entryDy=0;" edge="1" parent="aOGv1YQLPQVqvFgoYvwG-16" source="aOGv1YQLPQVqvFgoYvwG-2">
          <mxGeometry relative="1" as="geometry">
            <Array as="points">
              <mxPoint x="10" y="760" />
              <mxPoint x="10" y="1460" />
              <mxPoint x="462" y="1460" />
            </Array>
            <mxPoint x="-90" y="760.0000000000002" as="sourcePoint" />
            <mxPoint x="462" y="1432.5" as="targetPoint" />
          </mxGeometry>
        </mxCell>
        <mxCell id="6uhYlQjSWHIFQsnubcx_-25" value="&lt;div&gt;Registrar&lt;/div&gt;&lt;div&gt;&lt;br&gt;&lt;/div&gt;" style="ellipse;whiteSpace=wrap;html=1;" vertex="1" parent="aOGv1YQLPQVqvFgoYvwG-16">
          <mxGeometry x="482" y="60" width="60" height="47.5" as="geometry" />
        </mxCell>
        <mxCell id="6uhYlQjSWHIFQsnubcx_-18" style="edgeStyle=orthogonalEdgeStyle;rounded=0;orthogonalLoop=1;jettySize=auto;html=1;entryX=1;entryY=0.5;entryDx=0;entryDy=0;" edge="1" parent="aOGv1YQLPQVqvFgoYvwG-16" target="aOGv1YQLPQVqvFgoYvwG-94">
          <mxGeometry relative="1" as="geometry">
            <Array as="points">
              <mxPoint x="1400" y="470" />
              <mxPoint x="1400" y="760" />
              <mxPoint x="1040" y="760" />
              <mxPoint x="1040" y="890" />
              <mxPoint x="635" y="890" />
            </Array>
            <mxPoint x="1460" y="470" as="sourcePoint" />
            <mxPoint x="634.9999999999768" y="1127.5" as="targetPoint" />
          </mxGeometry>
        </mxCell>
        <mxCell id="DeOgyD3Fps9InaljSy74-4" style="edgeStyle=orthogonalEdgeStyle;rounded=0;orthogonalLoop=1;jettySize=auto;html=1;entryX=1;entryY=0.5;entryDx=0;entryDy=0;" edge="1" parent="aOGv1YQLPQVqvFgoYvwG-16" target="aOGv1YQLPQVqvFgoYvwG-92">
          <mxGeometry relative="1" as="geometry">
            <mxPoint x="1470" y="472.50058823529434" as="sourcePoint" />
            <mxPoint x="645.0000000000146" y="565" as="targetPoint" />
          </mxGeometry>
        </mxCell>
        <mxCell id="6uhYlQjSWHIFQsnubcx_-14" style="edgeStyle=orthogonalEdgeStyle;rounded=0;orthogonalLoop=1;jettySize=auto;html=1;entryX=1;entryY=0.5;entryDx=0;entryDy=0;" edge="1" parent="aOGv1YQLPQVqvFgoYvwG-16" target="aOGv1YQLPQVqvFgoYvwG-91">
          <mxGeometry relative="1" as="geometry">
            <mxPoint x="1460" y="456.94000000000005" as="sourcePoint" />
            <Array as="points">
              <mxPoint x="635" y="457" />
            </Array>
            <mxPoint x="635.0000000000146" y="449.44000000000005" as="targetPoint" />
          </mxGeometry>
        </mxCell>
        <mxCell id="6uhYlQjSWHIFQsnubcx_-23" style="edgeStyle=orthogonalEdgeStyle;rounded=0;orthogonalLoop=1;jettySize=auto;html=1;entryX=1;entryY=0.5;entryDx=0;entryDy=0;" edge="1" parent="1" source="aOGv1YQLPQVqvFgoYvwG-5" target="G9ReZ2Hsb_IeG8jyXpL3-117">
          <mxGeometry relative="1" as="geometry">
            <mxPoint x="865" y="940" as="sourcePoint" />
            <mxPoint x="35" y="1992.5" as="targetPoint" />
            <Array as="points">
              <mxPoint x="770" y="643" />
              <mxPoint x="770" y="940" />
              <mxPoint x="485" y="940" />
              <mxPoint x="485" y="1830" />
            </Array>
          </mxGeometry>
        </mxCell>
        <mxCell id="9Vq6gYhuHTxZshYnaZ2o-1" style="edgeStyle=orthogonalEdgeStyle;rounded=0;orthogonalLoop=1;jettySize=auto;html=1;" edge="1" parent="1" source="G9ReZ2Hsb_IeG8jyXpL3-91" target="aOGv1YQLPQVqvFgoYvwG-6">
          <mxGeometry relative="1" as="geometry">
            <Array as="points">
              <mxPoint x="750" y="1723" />
              <mxPoint x="750" y="1230" />
            </Array>
          </mxGeometry>
        </mxCell>
      </root>
    </mxGraphModel>
  </diagram>
</mxfile>
